HIERARCHY
ROOT Hips
{
	OFFSET 0.00000 0.00000 0.00000
	CHANNELS 6 Xposition Yposition Zposition Zrotation Yrotation Xrotation 
	JOINT LHipJoint
	{
		OFFSET 0 0 0
		CHANNELS 3 Zrotation Yrotation Xrotation
		JOINT LeftUpLeg
		{
			OFFSET 1.75344 -1.53157 0.77399
			CHANNELS 3 Zrotation Yrotation Xrotation
			JOINT LeftLeg
			{
				OFFSET 2.25415 -6.19323 0.00000
				CHANNELS 3 Zrotation Yrotation Xrotation
				JOINT LeftFoot
				{
					OFFSET 2.30342 -6.32861 0.00000
					CHANNELS 3 Zrotation Yrotation Xrotation
					JOINT LeftToeBase
					{
						OFFSET 0.10958 -0.30108 1.49206
						CHANNELS 3 Zrotation Yrotation Xrotation
						End Site
						{
							OFFSET 0.00000 -0.00000 0.77783
						}
					}
				}
			}
		}
	}
	JOINT RHipJoint
	{
		OFFSET 0 0 0
		CHANNELS 3 Zrotation Yrotation Xrotation
		JOINT RightUpLeg
		{
			OFFSET -1.81912 -1.53156 0.77399
			CHANNELS 3 Zrotation Yrotation Xrotation
			JOINT RightLeg
			{
				OFFSET -2.22882 -6.12365 0.00000
				CHANNELS 3 Zrotation Yrotation Xrotation
				JOINT RightFoot
				{
					OFFSET -2.21943 -6.09785 0.00000
					CHANNELS 3 Zrotation Yrotation Xrotation
					JOINT RightToeBase
					{
						OFFSET -0.18931 -0.52012 1.59379
						CHANNELS 3 Zrotation Yrotation Xrotation
						End Site
						{
							OFFSET -0.00000 -0.00000 0.84686
						}
					}
				}
			}
		}
	}
	JOINT LowerBack
	{
		OFFSET 0 0 0
		CHANNELS 3 Zrotation Yrotation Xrotation
		JOINT Spine
		{
			OFFSET -0.00200 1.66634 -0.14248
			CHANNELS 3 Zrotation Yrotation Xrotation
			JOINT Spine1
			{
				OFFSET -0.00875 1.64542 0.09514
				CHANNELS 3 Zrotation Yrotation Xrotation
				JOINT Neck
				{
					OFFSET 0 0 0
					CHANNELS 3 Zrotation Yrotation Xrotation
					JOINT Neck1
					{
						OFFSET 0.02257 1.59605 0.00839
						CHANNELS 3 Zrotation Yrotation Xrotation
						JOINT Head
						{
							OFFSET -0.10214 1.57530 -0.23335
							CHANNELS 3 Zrotation Yrotation Xrotation
							End Site
							{
								OFFSET -0.03588 1.60717 -0.08062
							}
						}
					}
				}
				JOINT LeftShoulder
				{
					OFFSET 0 0 0
					CHANNELS 3 Zrotation Yrotation Xrotation
					JOINT LeftArm
					{
						OFFSET 2.54983 1.10186 0.40078
						CHANNELS 3 Zrotation Yrotation Xrotation
						JOINT LeftForeArm
						{
							OFFSET 4.28840 -0.00000 0.00000
							CHANNELS 3 Zrotation Yrotation Xrotation
							JOINT LeftHand
							{
								OFFSET 3.06552 -0.00000 -0.00000
								CHANNELS 3 Zrotation Yrotation Xrotation
								JOINT LeftFingerBase
								{
									OFFSET 0 0 0
									CHANNELS 3 Zrotation Yrotation Xrotation
									JOINT LeftHandIndex1
									{
										OFFSET 0.75304 -0.00000 0.00000
										CHANNELS 3 Zrotation Yrotation Xrotation
										End Site
										{
											OFFSET 0.60712 -0.00000 0.00000
										}
									}
								}
								JOINT LThumb
								{
									OFFSET 0 0 0
									CHANNELS 3 Zrotation Yrotation Xrotation
									End Site
									{
										OFFSET 0.61639 -0.00000 0.61639
									}
								}
							}
						}
					}
				}
				JOINT RightShoulder
				{
					OFFSET 0 0 0
					CHANNELS 3 Zrotation Yrotation Xrotation
					JOINT RightArm
					{
						OFFSET -2.60909 1.35448 0.21802
						CHANNELS 3 Zrotation Yrotation Xrotation
						JOINT RightForeArm
						{
							OFFSET -4.52172 -0.00000 -0.00000
							CHANNELS 3 Zrotation Yrotation Xrotation
							JOINT RightHand
							{
								OFFSET -2.89140 -0.00000 0.00000
								CHANNELS 3 Zrotation Yrotation Xrotation
								JOINT RightFingerBase
								{
									OFFSET 0 0 0
									CHANNELS 3 Zrotation Yrotation Xrotation
									JOINT RightHandIndex1
									{
										OFFSET -0.68054 -0.00000 0.00000
										CHANNELS 3 Zrotation Yrotation Xrotation
										End Site
										{
											OFFSET -0.54867 -0.00000 0.00000
										}
									}
								}
								JOINT RThumb
								{
									OFFSET 0 0 0
									CHANNELS 3 Zrotation Yrotation Xrotation
									End Site
									{
										OFFSET -0.55705 -0.00000 0.55705
									}
								}
							}
						}
					}
				}
			}
		}
	}
}
MOTION
Frames: 8
Frame Time: 0.0571429
0.00 0.00 0.00 -184.5560 -1.9931 -178.2550 0.0000 0.0000 0.0000 -36.4112 -14.7287 14.6156 0.5389 4.7037 13.0655 1.4313 5.7162 -25.3019 0.4504 -4.3058 -11.9387 0.0000 0.0000 0.0000 6.4272 41.7809 -19.9603 -1.1418 -6.7856 19.0817 -0.9020 -31.7283 -47.5665 -1.8494 -8.5450 24.3820 -4.3675 -0.2379 4.1340 0.5206 -0.5248 0.4072 3.0176 -0.2349 -1.8560 -3.9559 -1.7839 -1.2991 3.7791 -2.4625 -7.1377 1.9139 -1.3209 -1.9293 -0.0000 -0.0000 0.0000 -88.2848 -8.6579 17.7075 32.4666 -42.9161 -13.0575 -0.0000 0.0000 -0.2502 8.7062 -38.3546 -5.4281 -7.1250 0.0000 -0.0000 -13.4673 -7.7620 15.5713 -0.0000 -0.0000 0.0000 85.5529 -8.4497 23.5538 -20.3748 31.0913 -5.7236 0.0000 0.0000 13.9994 -4.1609 -51.5157 3.2593 7.1250 -0.0000 -0.0000 66.0188 -72.3170 -48.1815
0.00 0.00 0.00 -182.2380 -6.8342 -177.2900 0.0000 0.0000 0.0000 -30.1211 -9.2253 17.4515 0.8427 5.8554 16.3654 0.6515 -1.8453 -14.7293 0.5109 -4.5814 -12.7185 0.0000 0.0000 0.0000 13.3360 39.7171 -13.8094 -1.1459 -6.7975 19.1168 3.9762 -36.6233 -33.4407 -2.0516 -8.9727 25.7099 -1.9502 -0.2551 3.7621 1.3838 -0.4092 -0.0736 2.5405 -0.1816 -2.1616 -4.4863 -2.9271 -2.3215 4.6839 -3.9300 -6.9411 2.2847 -2.0567 -1.6016 0.0000 -0.0000 0.0000 -93.1840 -6.6386 18.1493 25.7274 -36.9383 -8.7233 -0.0000 -0.0000 0.7387 11.8974 -40.6793 -7.8195 -7.1250 0.0000 -0.0000 -12.1037 -10.5094 14.4028 0.0000 -0.0000 0.0000 83.2492 -8.8301 17.1334 -13.2417 21.6404 -2.5417 0.0000 0.0000 33.7276 -5.8378 -55.4759 4.8150 7.1250 -0.0000 -0.0000 77.9871 -73.9938 -61.2525
0.00 0.00 0.00 -177.1760 1.4710 -179.7760 0.0000 0.0000 0.0000 -20.5340 -30.4265 -11.0794 1.6814 8.1683 23.2264 -0.8994 19.3458 -18.0769 0.5106 4.5805 12.7159 0.0000 0.0000 0.0000 25.6140 -6.1932 11.2179 -2.8982 -10.5284 30.7053 -0.0311 -8.6343 6.6364 -0.0446 1.3635 -3.7496 2.7215 4.0577 4.0645 -1.0728 5.5251 -0.3214 -2.9330 2.7212 -2.2398 -9.0782 -5.6974 -0.1085 9.5282 -7.5709 -9.7731 4.4567 -3.9628 -2.1447 0.0000 0.0000 0.0000 -89.0962 8.9797 9.9790 20.0822 -30.7413 -5.5733 -0.0000 -0.0000 13.1922 0.0166 -37.2414 -0.0101 -7.1250 0.0000 -0.0000 -17.8665 -5.7024 20.5329 0.0000 0.0000 0.0000 90.7391 1.5189 11.3907 -13.1455 21.5001 -2.5064 0.0000 0.0000 35.7331 26.1446 -49.4645 -20.4583 7.1250 -0.0000 -0.0000 81.3812 -61.7769 -48.3052
0.00 0.00 0.00 -179.8610 4.3856 -180.3270 0.0000 0.0000 0.0000 -26.2181 -24.9721 -4.8117 0.9510 6.2103 17.3959 -0.9612 19.6732 -17.9458 0.2299 3.0859 8.5180 0.0000 0.0000 0.0000 18.2974 -4.7694 0.5523 -7.3449 -15.6155 50.1669 -0.6698 -9.4222 15.0520 -0.1159 -2.1952 6.0455 0.7411 4.2639 5.1116 -1.1368 5.7312 0.3987 -1.9724 2.8610 -2.2551 -7.1858 -4.3757 -0.8102 6.2087 -5.9342 -9.1149 3.4019 -3.0656 -2.3798 -0.0000 0.0000 0.0000 -88.1231 7.6234 14.1859 24.3904 -35.5744 -7.9325 -0.0000 -0.0000 5.0219 3.5583 -37.1923 -2.1527 -7.1250 0.0000 -0.0000 -16.0432 -5.9974 18.3312 -0.0000 0.0000 0.0000 87.5397 2.1067 7.3102 -13.3966 21.8655 -2.5991 0.0000 0.0000 35.4875 20.5597 -52.6621 -16.6051 7.1250 -0.0000 -0.0000 83.5966 -64.4554 -54.5972
0.00 0.00 0.00 -181.8580 -11.0723 -175.7790 0.0000 0.0000 0.0000 -26.1026 -7.8584 11.6253 1.9928 8.8511 25.3306 0.2290 -3.9092 -8.5356 0.0012 -0.2213 -0.6079 0.0000 0.0000 0.0000 17.1170 39.8627 -9.3625 -1.1390 -6.7775 19.0579 -3.0222 -26.0631 -49.3229 -2.4005 -9.6547 27.8657 -2.2298 -1.0172 4.4537 3.3591 -1.4502 -0.7584 4.8394 -0.6826 -3.1415 -1.7602 -1.3912 -5.2486 1.3280 -2.4527 -10.5360 0.7425 -1.4955 -2.3941 0.0000 -0.0000 0.0000 -93.8059 0.7723 13.3390 14.1340 -22.9259 -2.8801 -0.0000 -0.0000 32.8302 -9.0902 -35.4172 5.2975 -7.1250 0.0000 -0.0000 -22.4726 -3.4963 25.8229 0.0000 -0.0000 0.0000 80.5576 -4.0457 5.3188 -15.6439 25.0354 -3.4939 0.0000 0.0000 26.1825 -11.6349 -54.4856 9.5144 7.1250 -0.0000 -0.0000 72.7284 -75.9540 -58.4462
0.00 0.00 0.00 -180.5420 -12.8142 -176.7640 0.0000 0.0000 0.0000 -19.1455 -1.4053 0.5516 5.5448 13.9722 43.1263 -0.0200 -4.0997 4.9454 0.0107 0.6675 1.8343 0.0000 0.0000 0.0000 22.8870 30.7889 -6.5542 -0.9631 -6.2486 17.5076 -1.0446 -26.0954 -41.6679 -1.1221 -6.7287 18.9142 -2.0093 -0.5365 4.9012 3.6369 -0.8237 -0.1112 4.9617 -0.3989 -2.7854 -2.5675 -2.4965 -4.8747 2.2867 -3.8098 -10.5872 1.1968 -2.1482 -2.4253 0.0000 -0.0000 0.0000 -90.0704 2.3598 13.7624 15.9187 -25.4103 -3.6110 -0.0000 -0.0000 32.1103 -17.4364 -30.5264 9.0641 -7.1250 0.0000 -0.0000 -26.9235 0.9220 30.0468 0.0000 -0.0000 0.0000 78.4564 -0.5981 12.8288 -17.9559 28.1007 -4.5284 0.0000 0.0000 18.9521 -7.1531 -52.3575 5.6751 7.1250 -0.0000 -0.0000 66.8998 -73.7051 -50.5462
0.00 0.00 0.00 -174.3920 -10.9070 -182.1440 0.0000 0.0000 0.0000 -9.0707 -2.0028 -20.2833 15.5253 19.5130 76.8141 0.0050 3.6889 -5.4849 0.0002 0.0896 0.2461 0.0000 0.0000 0.0000 35.0948 11.3240 2.4787 -0.1823 -2.7503 7.5843 1.0111 -21.8651 -22.3302 -0.0000 -0.0056 0.0155 3.9380 2.0979 8.0178 4.4527 2.8127 2.6622 2.1355 1.2285 -1.7598 -5.5192 -5.5405 -1.2473 7.9771 -7.3876 -10.8299 3.7507 -3.9417 -2.7616 -0.0000 -0.0000 0.0000 -87.5614 -0.0861 14.7958 23.1782 -34.2831 -7.2384 -0.0000 -0.0000 2.6494 18.2357 -41.7040 -12.3633 -7.1250 0.0000 -0.0000 -9.0990 -12.7190 11.0018 -0.0000 -0.0000 0.0000 75.1525 14.0000 16.3973 -16.0058 25.5285 -3.6485 0.0000 0.0000 22.3044 -9.1771 -54.8098 7.5212 7.1250 -0.0000 -0.0000 74.6469 -75.0981 -59.3071
0.00 0.00 0.00 -178.4830 -0.5595 -181.8030 0.0000 0.0000 0.0000 -17.9878 -17.4183 -25.9736 6.4775 14.8757 46.8695 0.6507 7.8293 -20.0461 0.1339 -2.3587 -6.4981 0.0000 0.0000 0.0000 34.1007 12.9397 6.8840 -1.0301 -6.4560 18.1134 -0.4389 -17.0861 -27.8193 -0.1949 2.8430 -7.8421 6.8810 3.2715 8.0293 1.1874 4.6834 2.5877 -3.0182 2.2515 -1.3388 -7.1322 -3.9523 0.5524 2.3200 -5.6257 -8.2367 2.1031 -2.7758 -2.4572 0.0000 0.0000 0.0000 -92.6429 2.6820 -2.8425 19.1541 -29.6097 -5.1067 -0.0000 -0.0000 17.5359 -12.4104 -39.7085 8.0027 -7.1250 0.0000 -0.0000 -23.9331 -7.4839 29.3687 0.0000 0.0000 0.0000 88.8873 21.2695 31.4343 -20.9276 31.7438 -6.0118 0.0000 0.0000 16.8146 2.8828 -48.4488 -2.1581 7.1250 -0.0000 -0.0000 63.0501 -68.5739 -41.2127
